<svg xmlns="http://www.w3.org/2000/svg" xmlns:xlink="http://www.w3.org/1999/xlink" id="Capa_1" x="0px" y="0px" viewBox="0 0 89.61 91.35" style="enable-background:new 0 0 89.61 91.35;" xml:space="preserve"><style type="text/css">	.st0{fill:none;stroke:#0a0a0a;stroke-miterlimit:10;}</style><g>	<path class="st0" d="M78.88,77.31H10.74c-4.68,0-8.5-3.83-8.5-8.5V22.54c0-4.68,3.83-8.5,8.5-8.5h68.14c4.68,0,8.5,3.83,8.5,8.5   v46.27C87.38,73.48,83.55,77.31,78.88,77.31z"></path>	<circle class="st0" cx="44.81" cy="70.47" r="2.26"></circle>	<g>		<path class="st0" d="M17.09,33.04h-5.2c-1.57,0-2.83-1.27-2.83-2.83V25c0-1.57,1.27-2.83,2.83-2.83h5.2    c1.57,0,2.83,1.27,2.83,2.83v5.2C19.93,31.77,18.66,33.04,17.09,33.04z"></path>		<path class="st0" d="M37.3,33.04h-5.2c-1.57,0-2.83-1.27-2.83-2.83V25c0-1.57,1.27-2.83,2.83-2.83h5.2c1.57,0,2.83,1.27,2.83,2.83    v5.2C40.14,31.77,38.87,33.04,37.3,33.04z"></path>		<path class="st0" d="M57.51,33.04h-5.2c-1.57,0-2.83-1.27-2.83-2.83V25c0-1.57,1.27-2.83,2.83-2.83h5.2    c1.57,0,2.83,1.27,2.83,2.83v5.2C60.34,31.77,59.08,33.04,57.51,33.04z"></path>		<path class="st0" d="M77.72,33.04h-5.2c-1.57,0-2.83-1.27-2.83-2.83V25c0-1.57,1.27-2.83,2.83-2.83h5.2    c1.57,0,2.83,1.27,2.83,2.83v5.2C80.55,31.77,79.28,33.04,77.72,33.04z"></path>	</g>	<g>		<path class="st0" d="M17.09,52.47h-5.2c-1.57,0-2.83-1.27-2.83-2.83v-5.2c0-1.57,1.27-2.83,2.83-2.83h5.2    c1.57,0,2.83,1.27,2.83,2.83v5.2C19.93,51.2,18.66,52.47,17.09,52.47z"></path>		<path class="st0" d="M37.3,52.47h-5.2c-1.57,0-2.83-1.27-2.83-2.83v-5.2c0-1.57,1.27-2.83,2.83-2.83h5.2    c1.57,0,2.83,1.27,2.83,2.83v5.2C40.14,51.2,38.87,52.47,37.3,52.47z"></path>		<path class="st0" d="M57.51,52.47h-5.2c-1.57,0-2.83-1.27-2.83-2.83v-5.2c0-1.57,1.27-2.83,2.83-2.83h5.2    c1.57,0,2.83,1.27,2.83,2.83v5.2C60.34,51.2,59.08,52.47,57.51,52.47z"></path>		<path class="st0" d="M77.72,52.47h-5.2c-1.57,0-2.83-1.27-2.83-2.83v-5.2c0-1.57,1.27-2.83,2.83-2.83h5.2    c1.57,0,2.83,1.27,2.83,2.83v5.2C80.55,51.2,79.28,52.47,77.72,52.47z"></path>	</g>	<line class="st0" x1="9.06" y1="63.39" x2="80.55" y2="63.39"></line></g></svg>