<svg xmlns="http://www.w3.org/2000/svg" xmlns:xlink="http://www.w3.org/1999/xlink" id="Capa_1" x="0px" y="0px" viewBox="0 0 89.61 91.35" style="enable-background:new 0 0 89.61 91.35;" xml:space="preserve"><style type="text/css">	.st0{fill:none;stroke:#0a0a0a;stroke-miterlimit:10;}</style><g>	<path class="st0" d="M18.51,22.17v47.01c0,4.47-1.97,8.14-4.38,8.14h0c-2.41,0-4.38-3.66-4.38-8.14V22.17"></path>	<path class="st0" d="M18.51,69.18V22.17c0-4.47,1.97-8.14,4.38-8.14h0c2.41,0,4.38,3.66,4.38,8.14v47.01"></path>	<path class="st0" d="M36.04,22.17v47.01c0,4.47-1.97,8.14-4.38,8.14h0c-2.41,0-4.38-3.66-4.38-8.14"></path>	<path class="st0" d="M36.04,69.18V22.17c0-4.47,1.97-8.14,4.38-8.14h0c2.41,0,4.38,3.66,4.38,8.14v47.01"></path>	<path class="st0" d="M53.57,22.17v47.01c0,4.47-1.97,8.14-4.38,8.14h0c-2.41,0-4.38-3.66-4.38-8.14"></path>	<path class="st0" d="M53.57,69.18V22.17c0-4.47,1.97-8.14,4.38-8.14h0c2.41,0,4.38,3.66,4.38,8.14v47.01"></path>	<path class="st0" d="M71.1,22.17v47.01c0,4.47-1.97,8.14-4.38,8.14h0c-2.41,0-4.38-3.66-4.38-8.14"></path>	<path class="st0" d="M71.1,69.18V22.17c0-4.47,1.97-8.14,4.38-8.14h0c2.41,0,4.38,3.66,4.38,8.14v47.01"></path></g></svg>