<svg xmlns="http://www.w3.org/2000/svg" xmlns:xlink="http://www.w3.org/1999/xlink" id="Capa_1" x="0px" y="0px" viewBox="0 0 89.61 91.35" style="enable-background:new 0 0 89.61 91.35;" xml:space="preserve"><style type="text/css">	.st0{fill:none;stroke:#0a0a0a;stroke-miterlimit:10;}</style><path class="st0" d="M81.04,21.96h-4.3V10.17V8.61v0c0-0.86-0.7-1.56-1.56-1.56H51.45c-0.86,0-1.56,0.7-1.56,1.56v0v1.56V22.1H39.08  V10.17V8.61v0c0-0.86-0.7-1.56-1.56-1.56H13.78c-0.86,0-1.56,0.7-1.56,1.56v0v1.56v11.78h-4.3c-2.25,0-4.09,1.84-4.09,4.09v39.03  c0,2.25,1.84,4.09,4.09,4.09h4.3v10.3v1.56l0,0c0,0.86,0.7,1.56,1.56,1.56h16.24c0.58,1.19,1.81,2.02,3.22,2.02h22.47  c1.41,0,2.64-0.83,3.22-2.02h16.25c0.86,0,1.56-0.7,1.56-1.56l0,0v-1.56v-10.3h4.3c2.25,0,4.09-1.84,4.09-4.09V26.05  C85.13,23.8,83.29,21.96,81.04,21.96z M72.06,79.46H58.93c-0.58-1.19-1.81-2.02-3.22-2.02H33.24c-1.41,0-2.64,0.83-3.22,2.02H16.91  c-0.86,0-1.56-0.7-1.56-1.56v-8.74h4.3c2.25,0,4.09-1.84,4.09-4.09V26.05c0-2.25-1.84-4.09-4.09-4.09h-4.3V11.73  c0-0.86,0.7-1.56,1.56-1.56h17.49c0.86,0,1.56,0.7,1.56,1.56V22.1h-2.21c-2.25,0-4.09,1.84-4.09,4.09v21.46  c0,2.25,1.84,4.09,4.09,4.09h9.17v6.38c-2.41,0.7-4.17,2.96-4.07,5.62c0.1,2.91,2.5,5.32,5.41,5.43c3.21,0.12,5.86-2.45,5.86-5.63  c0-2.57-1.72-4.73-4.08-5.41v-6.38h9.17c2.25,0,4.09-1.84,4.09-4.09V26.18c0-2.25-1.84-4.09-4.09-4.09h-2.2V11.73  c0-0.86,0.7-1.56,1.56-1.56h17.49c0.86,0,1.56,0.7,1.56,1.56v10.22h-4.3c-2.25,0-4.09,1.84-4.09,4.09v39.03  c0,2.25,1.84,4.09,4.09,4.09h4.3v8.74C73.62,78.76,72.92,79.46,72.06,79.46z"></path><g>	<line class="st0" x1="13.79" y1="37.34" x2="13.79" y2="54.31"></line>	<polyline class="st0" points="9.14,41.95 13.74,37.34 18.44,42.04  "></polyline></g><g>	<line class="st0" x1="75.27" y1="54.31" x2="75.27" y2="37.34"></line>	<polyline class="st0" points="79.92,49.71 75.32,54.31 70.62,49.61  "></polyline></g><rect x="34.17" y="26.79" class="st0" width="20.62" height="20.62"></rect></svg>